<mxfile host="app.diagrams.net" agent="Mozilla/5.0 (Macintosh; Intel Mac OS X 10_15_7) AppleWebKit/537.36 (KHTML, like Gecko) Chrome/129.0.0.0 Safari/537.36" version="24.7.16">
  <diagram name="페이지-1" id="U6WN6JapVexlkyOcd0_J">
    <mxGraphModel dx="776" dy="491" grid="1" gridSize="10" guides="1" tooltips="1" connect="1" arrows="1" fold="1" page="1" pageScale="1" pageWidth="827" pageHeight="1169" math="0" shadow="0">
      <root>
        <mxCell id="0" />
        <mxCell id="1" parent="0" />
        <mxCell id="yEmn6hOdeGd0vT14s_O_-1" value="Residents" style="rounded=0;whiteSpace=wrap;html=1;" vertex="1" parent="1">
          <mxGeometry x="344.5" y="280" width="70" height="20" as="geometry" />
        </mxCell>
        <mxCell id="yEmn6hOdeGd0vT14s_O_-2" value="&lt;u&gt;SSN&lt;/u&gt;" style="ellipse;whiteSpace=wrap;html=1;" vertex="1" parent="1">
          <mxGeometry x="490" y="290" width="40" height="30" as="geometry" />
        </mxCell>
        <mxCell id="yEmn6hOdeGd0vT14s_O_-3" value="Name" style="ellipse;whiteSpace=wrap;html=1;" vertex="1" parent="1">
          <mxGeometry x="490" y="250" width="40" height="30" as="geometry" />
        </mxCell>
        <mxCell id="yEmn6hOdeGd0vT14s_O_-4" value="Address" style="ellipse;whiteSpace=wrap;html=1;" vertex="1" parent="1">
          <mxGeometry x="480" y="330" width="60" height="30" as="geometry" />
        </mxCell>
        <mxCell id="yEmn6hOdeGd0vT14s_O_-5" value="Street" style="ellipse;whiteSpace=wrap;html=1;" vertex="1" parent="1">
          <mxGeometry x="585" y="400" width="40" height="30" as="geometry" />
        </mxCell>
        <mxCell id="yEmn6hOdeGd0vT14s_O_-6" value="City" style="ellipse;whiteSpace=wrap;html=1;" vertex="1" parent="1">
          <mxGeometry x="590" y="365" width="30" height="30" as="geometry" />
        </mxCell>
        <mxCell id="yEmn6hOdeGd0vT14s_O_-7" value="State" style="ellipse;whiteSpace=wrap;html=1;" vertex="1" parent="1">
          <mxGeometry x="585" y="330" width="40" height="30" as="geometry" />
        </mxCell>
        <mxCell id="yEmn6hOdeGd0vT14s_O_-8" value="Zip" style="ellipse;whiteSpace=wrap;html=1;" vertex="1" parent="1">
          <mxGeometry x="590" y="290" width="30" height="30" as="geometry" />
        </mxCell>
        <mxCell id="yEmn6hOdeGd0vT14s_O_-9" value="" style="endArrow=none;html=1;rounded=0;fontStyle=1" edge="1" parent="1" source="yEmn6hOdeGd0vT14s_O_-1" target="yEmn6hOdeGd0vT14s_O_-4">
          <mxGeometry width="50" height="50" relative="1" as="geometry">
            <mxPoint x="400" y="200" as="sourcePoint" />
            <mxPoint x="450" y="150" as="targetPoint" />
          </mxGeometry>
        </mxCell>
        <mxCell id="yEmn6hOdeGd0vT14s_O_-10" value="" style="endArrow=none;html=1;rounded=0;" edge="1" parent="1" source="yEmn6hOdeGd0vT14s_O_-1" target="yEmn6hOdeGd0vT14s_O_-3">
          <mxGeometry width="50" height="50" relative="1" as="geometry">
            <mxPoint x="427" y="190" as="sourcePoint" />
            <mxPoint x="454" y="168" as="targetPoint" />
          </mxGeometry>
        </mxCell>
        <mxCell id="yEmn6hOdeGd0vT14s_O_-11" value="" style="endArrow=none;html=1;rounded=0;" edge="1" parent="1" source="yEmn6hOdeGd0vT14s_O_-1" target="yEmn6hOdeGd0vT14s_O_-2">
          <mxGeometry width="50" height="50" relative="1" as="geometry">
            <mxPoint x="414" y="190" as="sourcePoint" />
            <mxPoint x="412" y="170" as="targetPoint" />
          </mxGeometry>
        </mxCell>
        <mxCell id="yEmn6hOdeGd0vT14s_O_-12" value="" style="endArrow=none;html=1;rounded=0;" edge="1" parent="1" source="yEmn6hOdeGd0vT14s_O_-4" target="yEmn6hOdeGd0vT14s_O_-5">
          <mxGeometry width="50" height="50" relative="1" as="geometry">
            <mxPoint x="553" y="380" as="sourcePoint" />
            <mxPoint x="524" y="356" as="targetPoint" />
          </mxGeometry>
        </mxCell>
        <mxCell id="yEmn6hOdeGd0vT14s_O_-13" value="" style="endArrow=none;html=1;rounded=0;" edge="1" parent="1" source="yEmn6hOdeGd0vT14s_O_-4" target="yEmn6hOdeGd0vT14s_O_-6">
          <mxGeometry width="50" height="50" relative="1" as="geometry">
            <mxPoint x="599" y="334" as="sourcePoint" />
            <mxPoint x="537" y="303" as="targetPoint" />
          </mxGeometry>
        </mxCell>
        <mxCell id="yEmn6hOdeGd0vT14s_O_-14" value="" style="endArrow=none;html=1;rounded=0;" edge="1" parent="1" source="yEmn6hOdeGd0vT14s_O_-4" target="yEmn6hOdeGd0vT14s_O_-7">
          <mxGeometry width="50" height="50" relative="1" as="geometry">
            <mxPoint x="605" y="332" as="sourcePoint" />
            <mxPoint x="576" y="305" as="targetPoint" />
          </mxGeometry>
        </mxCell>
        <mxCell id="yEmn6hOdeGd0vT14s_O_-15" value="" style="endArrow=none;html=1;rounded=0;" edge="1" parent="1" source="yEmn6hOdeGd0vT14s_O_-4" target="yEmn6hOdeGd0vT14s_O_-8">
          <mxGeometry width="50" height="50" relative="1" as="geometry">
            <mxPoint x="617" y="330" as="sourcePoint" />
            <mxPoint x="613" y="310" as="targetPoint" />
          </mxGeometry>
        </mxCell>
        <mxCell id="yEmn6hOdeGd0vT14s_O_-24" value="Licences" style="rounded=0;whiteSpace=wrap;html=1;" vertex="1" parent="1">
          <mxGeometry x="344.5" y="146" width="70" height="20" as="geometry" />
        </mxCell>
        <mxCell id="yEmn6hOdeGd0vT14s_O_-25" value="&lt;u&gt;Licence_No&lt;/u&gt;" style="ellipse;whiteSpace=wrap;html=1;" vertex="1" parent="1">
          <mxGeometry x="264.5" y="96" width="80" height="30" as="geometry" />
        </mxCell>
        <mxCell id="yEmn6hOdeGd0vT14s_O_-26" value="Season" style="ellipse;whiteSpace=wrap;html=1;" vertex="1" parent="1">
          <mxGeometry x="354.5" y="96" width="50" height="30" as="geometry" />
        </mxCell>
        <mxCell id="yEmn6hOdeGd0vT14s_O_-27" value="State" style="ellipse;whiteSpace=wrap;html=1;" vertex="1" parent="1">
          <mxGeometry x="414.5" y="96" width="40" height="30" as="geometry" />
        </mxCell>
        <mxCell id="yEmn6hOdeGd0vT14s_O_-28" value="" style="endArrow=none;html=1;rounded=0;fontStyle=1" edge="1" parent="1" source="yEmn6hOdeGd0vT14s_O_-24" target="yEmn6hOdeGd0vT14s_O_-27">
          <mxGeometry width="50" height="50" relative="1" as="geometry">
            <mxPoint x="374.5" y="166" as="sourcePoint" />
            <mxPoint x="424.5" y="116" as="targetPoint" />
          </mxGeometry>
        </mxCell>
        <mxCell id="yEmn6hOdeGd0vT14s_O_-29" value="" style="endArrow=none;html=1;rounded=0;" edge="1" parent="1" source="yEmn6hOdeGd0vT14s_O_-24" target="yEmn6hOdeGd0vT14s_O_-26">
          <mxGeometry width="50" height="50" relative="1" as="geometry">
            <mxPoint x="401.5" y="156" as="sourcePoint" />
            <mxPoint x="428.5" y="134" as="targetPoint" />
          </mxGeometry>
        </mxCell>
        <mxCell id="yEmn6hOdeGd0vT14s_O_-30" value="" style="endArrow=none;html=1;rounded=0;" edge="1" parent="1" source="yEmn6hOdeGd0vT14s_O_-24" target="yEmn6hOdeGd0vT14s_O_-25">
          <mxGeometry width="50" height="50" relative="1" as="geometry">
            <mxPoint x="388.5" y="156" as="sourcePoint" />
            <mxPoint x="386.5" y="136" as="targetPoint" />
          </mxGeometry>
        </mxCell>
        <mxCell id="yEmn6hOdeGd0vT14s_O_-32" value="Sport_Fishers" style="rounded=0;whiteSpace=wrap;html=1;" vertex="1" parent="1">
          <mxGeometry x="260" y="400" width="90" height="20" as="geometry" />
        </mxCell>
        <mxCell id="yEmn6hOdeGd0vT14s_O_-34" value="Number_years" style="ellipse;whiteSpace=wrap;html=1;" vertex="1" parent="1">
          <mxGeometry x="140" y="395" width="110" height="30" as="geometry" />
        </mxCell>
        <mxCell id="yEmn6hOdeGd0vT14s_O_-35" value="Prior_License_No" style="ellipse;whiteSpace=wrap;html=1;" vertex="1" parent="1">
          <mxGeometry x="170" y="440" width="110" height="30" as="geometry" />
        </mxCell>
        <mxCell id="yEmn6hOdeGd0vT14s_O_-36" value="" style="endArrow=none;html=1;rounded=0;fontStyle=1" edge="1" parent="1" source="yEmn6hOdeGd0vT14s_O_-32" target="yEmn6hOdeGd0vT14s_O_-35">
          <mxGeometry width="50" height="50" relative="1" as="geometry">
            <mxPoint x="400" y="340" as="sourcePoint" />
            <mxPoint x="450" y="290" as="targetPoint" />
          </mxGeometry>
        </mxCell>
        <mxCell id="yEmn6hOdeGd0vT14s_O_-37" value="" style="endArrow=none;html=1;rounded=0;" edge="1" parent="1" source="yEmn6hOdeGd0vT14s_O_-32" target="yEmn6hOdeGd0vT14s_O_-34">
          <mxGeometry width="50" height="50" relative="1" as="geometry">
            <mxPoint x="427" y="330" as="sourcePoint" />
            <mxPoint x="454" y="308" as="targetPoint" />
          </mxGeometry>
        </mxCell>
        <mxCell id="yEmn6hOdeGd0vT14s_O_-40" value="Commercial_Fishers" style="rounded=0;whiteSpace=wrap;html=1;" vertex="1" parent="1">
          <mxGeometry x="400" y="400" width="125" height="20" as="geometry" />
        </mxCell>
        <mxCell id="yEmn6hOdeGd0vT14s_O_-42" value="Vessel_number" style="ellipse;whiteSpace=wrap;html=1;" vertex="1" parent="1">
          <mxGeometry x="350" y="490" width="100" height="30" as="geometry" />
        </mxCell>
        <mxCell id="yEmn6hOdeGd0vT14s_O_-43" value="Vessel_type" style="ellipse;whiteSpace=wrap;html=1;" vertex="1" parent="1">
          <mxGeometry x="548" y="490" width="80" height="30" as="geometry" />
        </mxCell>
        <mxCell id="yEmn6hOdeGd0vT14s_O_-46" value="" style="endArrow=none;html=1;rounded=0;" edge="1" parent="1" source="yEmn6hOdeGd0vT14s_O_-40" target="yEmn6hOdeGd0vT14s_O_-58">
          <mxGeometry width="50" height="50" relative="1" as="geometry">
            <mxPoint x="434" y="410" as="sourcePoint" />
            <mxPoint x="360" y="460" as="targetPoint" />
          </mxGeometry>
        </mxCell>
        <mxCell id="yEmn6hOdeGd0vT14s_O_-47" value="Vessel_name" style="ellipse;whiteSpace=wrap;html=1;" vertex="1" parent="1">
          <mxGeometry x="460" y="490" width="80" height="30" as="geometry" />
        </mxCell>
        <mxCell id="yEmn6hOdeGd0vT14s_O_-49" value="&lt;b&gt;O&lt;/b&gt;" style="ellipse;whiteSpace=wrap;html=1;aspect=fixed;" vertex="1" parent="1">
          <mxGeometry x="365" y="330" width="30" height="30" as="geometry" />
        </mxCell>
        <mxCell id="yEmn6hOdeGd0vT14s_O_-51" value="" style="verticalLabelPosition=bottom;align=center;dashed=0;html=1;verticalAlign=top;shape=mxgraph.pid.piping.double_flange;pointerEvents=1;" vertex="1" parent="1">
          <mxGeometry x="377.5" y="300" width="5" height="30" as="geometry" />
        </mxCell>
        <mxCell id="yEmn6hOdeGd0vT14s_O_-55" value="" style="endArrow=none;html=1;rounded=0;" edge="1" parent="1" source="yEmn6hOdeGd0vT14s_O_-40" target="yEmn6hOdeGd0vT14s_O_-49">
          <mxGeometry width="50" height="50" relative="1" as="geometry">
            <mxPoint x="327" y="410" as="sourcePoint" />
            <mxPoint x="379" y="365" as="targetPoint" />
          </mxGeometry>
        </mxCell>
        <mxCell id="yEmn6hOdeGd0vT14s_O_-58" value="&lt;u&gt;Tax_ID&lt;/u&gt;" style="ellipse;whiteSpace=wrap;html=1;" vertex="1" parent="1">
          <mxGeometry x="400" y="440" width="50" height="30" as="geometry" />
        </mxCell>
        <mxCell id="yEmn6hOdeGd0vT14s_O_-62" value="" style="ellipse;whiteSpace=wrap;html=1;align=center;aspect=fixed;fillColor=none;strokeColor=none;resizable=0;perimeter=centerPerimeter;rotatable=0;allowArrows=0;points=[];outlineConnect=1;" vertex="1" parent="1">
          <mxGeometry x="350" y="311" width="10" height="10" as="geometry" />
        </mxCell>
        <mxCell id="yEmn6hOdeGd0vT14s_O_-63" value="" style="shape=requiredInterface;html=1;verticalLabelPosition=bottom;sketch=0;rotation=49.5;direction=south;" vertex="1" parent="1">
          <mxGeometry x="346" y="365" width="10" height="10" as="geometry" />
        </mxCell>
        <mxCell id="yEmn6hOdeGd0vT14s_O_-54" value="" style="endArrow=none;html=1;rounded=0;" edge="1" parent="1" source="yEmn6hOdeGd0vT14s_O_-32" target="yEmn6hOdeGd0vT14s_O_-49">
          <mxGeometry width="50" height="50" relative="1" as="geometry">
            <mxPoint x="290" y="395" as="sourcePoint" />
            <mxPoint x="340" y="345" as="targetPoint" />
          </mxGeometry>
        </mxCell>
        <mxCell id="yEmn6hOdeGd0vT14s_O_-65" value="" style="shape=requiredInterface;html=1;verticalLabelPosition=bottom;sketch=0;rotation=307;direction=south;" vertex="1" parent="1">
          <mxGeometry x="404" y="363" width="10" height="10" as="geometry" />
        </mxCell>
        <mxCell id="yEmn6hOdeGd0vT14s_O_-86" style="edgeStyle=orthogonalEdgeStyle;rounded=0;orthogonalLoop=1;jettySize=auto;html=1;exitX=0.5;exitY=0;exitDx=0;exitDy=0;" edge="1" parent="1" source="yEmn6hOdeGd0vT14s_O_-84">
          <mxGeometry relative="1" as="geometry">
            <mxPoint x="379.7142857142858" y="189.8571428571429" as="targetPoint" />
          </mxGeometry>
        </mxCell>
        <mxCell id="yEmn6hOdeGd0vT14s_O_-84" value="Owns" style="shape=rhombus;perimeter=rhombusPerimeter;whiteSpace=wrap;html=1;align=center;" vertex="1" parent="1">
          <mxGeometry x="319.5" y="190" width="120" height="60" as="geometry" />
        </mxCell>
        <mxCell id="yEmn6hOdeGd0vT14s_O_-85" value="" style="endArrow=none;html=1;rounded=0;entryX=0.5;entryY=0;entryDx=0;entryDy=0;" edge="1" parent="1" source="yEmn6hOdeGd0vT14s_O_-24" target="yEmn6hOdeGd0vT14s_O_-84">
          <mxGeometry width="50" height="50" relative="1" as="geometry">
            <mxPoint x="390" y="156" as="sourcePoint" />
            <mxPoint x="390" y="136" as="targetPoint" />
          </mxGeometry>
        </mxCell>
        <mxCell id="yEmn6hOdeGd0vT14s_O_-87" value="" style="endArrow=none;html=1;rounded=0;exitX=0.5;exitY=1;exitDx=0;exitDy=0;" edge="1" parent="1" source="yEmn6hOdeGd0vT14s_O_-84" target="yEmn6hOdeGd0vT14s_O_-1">
          <mxGeometry width="50" height="50" relative="1" as="geometry">
            <mxPoint x="390" y="176" as="sourcePoint" />
            <mxPoint x="390" y="200" as="targetPoint" />
          </mxGeometry>
        </mxCell>
        <mxCell id="yEmn6hOdeGd0vT14s_O_-88" value="&lt;font style=&quot;font-size: 8px;&quot;&gt;(1,n)&lt;/font&gt;" style="text;html=1;align=center;verticalAlign=middle;resizable=0;points=[];autosize=1;strokeColor=none;fillColor=none;" vertex="1" parent="1">
          <mxGeometry x="369" y="163" width="40" height="30" as="geometry" />
        </mxCell>
        <mxCell id="yEmn6hOdeGd0vT14s_O_-89" value="&lt;font style=&quot;font-size: 8px;&quot;&gt;(1,1)&lt;/font&gt;" style="text;html=1;align=center;verticalAlign=middle;resizable=0;points=[];autosize=1;strokeColor=none;fillColor=none;" vertex="1" parent="1">
          <mxGeometry x="369" y="250" width="40" height="30" as="geometry" />
        </mxCell>
        <mxCell id="yEmn6hOdeGd0vT14s_O_-90" value="Vessel" style="ellipse;whiteSpace=wrap;html=1;" vertex="1" parent="1">
          <mxGeometry x="475" y="440" width="50" height="30" as="geometry" />
        </mxCell>
        <mxCell id="yEmn6hOdeGd0vT14s_O_-91" value="" style="endArrow=none;html=1;rounded=0;" edge="1" parent="1" source="yEmn6hOdeGd0vT14s_O_-40" target="yEmn6hOdeGd0vT14s_O_-90">
          <mxGeometry width="50" height="50" relative="1" as="geometry">
            <mxPoint x="464" y="430" as="sourcePoint" />
            <mxPoint x="446" y="452" as="targetPoint" />
          </mxGeometry>
        </mxCell>
        <mxCell id="yEmn6hOdeGd0vT14s_O_-92" value="" style="endArrow=none;html=1;rounded=0;" edge="1" parent="1" source="yEmn6hOdeGd0vT14s_O_-90" target="yEmn6hOdeGd0vT14s_O_-42">
          <mxGeometry width="50" height="50" relative="1" as="geometry">
            <mxPoint x="481" y="430" as="sourcePoint" />
            <mxPoint x="499" y="452" as="targetPoint" />
          </mxGeometry>
        </mxCell>
        <mxCell id="yEmn6hOdeGd0vT14s_O_-93" value="" style="endArrow=none;html=1;rounded=0;" edge="1" parent="1" source="yEmn6hOdeGd0vT14s_O_-90" target="yEmn6hOdeGd0vT14s_O_-47">
          <mxGeometry width="50" height="50" relative="1" as="geometry">
            <mxPoint x="490" y="474" as="sourcePoint" />
            <mxPoint x="425" y="504" as="targetPoint" />
          </mxGeometry>
        </mxCell>
        <mxCell id="yEmn6hOdeGd0vT14s_O_-94" value="" style="endArrow=none;html=1;rounded=0;" edge="1" parent="1" source="yEmn6hOdeGd0vT14s_O_-90" target="yEmn6hOdeGd0vT14s_O_-43">
          <mxGeometry width="50" height="50" relative="1" as="geometry">
            <mxPoint x="491" y="475" as="sourcePoint" />
            <mxPoint x="436" y="502" as="targetPoint" />
          </mxGeometry>
        </mxCell>
      </root>
    </mxGraphModel>
  </diagram>
</mxfile>
